<svg width="13" height="10" viewBox="0 0 13 10" fill="none" xmlns="http://www.w3.org/2000/svg">
<rect width="2.9938" height="9.57816" rx="1" transform="matrix(0.853039 -0.521847 0.609574 0.792729 2.08228 1.96216)" fill="black"/>
<path d="M1.29717 5.84108C0.964233 5.40043 1.07441 4.80658 1.54325 4.51468L3.22842 3.46548L6.68396 8.03901L4.99878 9.08821C4.52994 9.38011 3.87997 9.25953 3.54704 8.81888L1.29717 5.84108Z" fill="black"/>
<path d="M0.901512 7.7422C0.735046 7.52187 0.790133 7.22494 1.02455 7.07899L1.86711 6.55441L3.01894 8.07891L2.17638 8.60349C1.94196 8.74944 1.61698 8.68915 1.45051 8.46882L0.901512 7.7422Z" fill="black"/>
<path d="M6.8999 3.57422L8.35955 5.47244L12.616 2.8686L11.4365 0.798973L6.8999 3.57422Z" fill="black"/>
</svg>
