<svg width="23" height="17" viewBox="0 0 23 17" fill="none" xmlns="http://www.w3.org/2000/svg">
<rect width="2.99383" height="9.57821" rx="1" transform="matrix(0.853041 -0.521843 0.609577 0.792727 1.48218 8.36328)" fill="black"/>
<path d="M0.697067 12.2422C0.364133 11.8016 0.474309 11.2077 0.943149 10.9158L2.62834 9.86659L6.08388 14.4401L4.39869 15.4894C3.92985 15.7813 3.27988 15.6607 2.94695 15.22L0.697067 12.2422Z" fill="black"/>
<path d="M22.191 1.98166C22.3617 2.19876 22.3102 2.49345 22.0761 2.63986L21.2322 3.16759L20.047 1.65979L20.8909 1.13206C21.125 0.985649 21.4532 1.04295 21.6238 1.26006L22.191 1.98166Z" fill="black"/>
<rect width="2.99066" height="9.58913" rx="1" transform="matrix(-0.847872 0.530201 -0.617978 -0.786195 20.9521 7.6167)" fill="black"/>
<path d="M21.6848 3.73724C22.0261 4.17145 21.9231 4.76082 21.4549 5.05364L19.767 6.10909L16.2115 1.58573L17.8993 0.530279C18.3676 0.237458 19.0239 0.35207 19.3652 0.786273L21.6848 3.73724Z" fill="black"/>
<path d="M0.301417 14.1433C0.134949 13.923 0.190036 13.6261 0.424457 13.4801L1.26705 12.9555L2.4189 14.48L1.57631 15.0046C1.34189 15.1506 1.0169 15.0903 0.850435 14.87L0.301417 14.1433Z" fill="black"/>
<rect width="9.97944" height="2.39455" transform="matrix(0.853042 -0.521842 0.609579 0.792726 6.26343 9.68091)" fill="black"/>
</svg>
