<svg width="50" height="50" viewBox="0 0 50 50" fill="none" xmlns="http://www.w3.org/2000/svg">
<path d="M16.4062 10.9375H11.7188C10.8558 10.9375 10.1562 11.6371 10.1562 12.5V37.5C10.1562 38.3629 10.8558 39.0625 11.7188 39.0625H16.4062C17.2692 39.0625 17.9688 38.3629 17.9688 37.5V12.5C17.9688 11.6371 17.2692 10.9375 16.4062 10.9375Z" stroke="black" stroke-width="4" stroke-linecap="round" stroke-linejoin="round"/>
<path d="M38.2812 10.9375H33.5938C32.7308 10.9375 32.0312 11.6371 32.0312 12.5V37.5C32.0312 38.3629 32.7308 39.0625 33.5938 39.0625H38.2812C39.1442 39.0625 39.8438 38.3629 39.8438 37.5V12.5C39.8438 11.6371 39.1442 10.9375 38.2812 10.9375Z" stroke="black" stroke-width="4" stroke-linecap="round" stroke-linejoin="round"/>
<path d="M40.625 15.625H45.3125C45.7269 15.625 46.1243 15.7896 46.4174 16.0826C46.7104 16.3757 46.875 16.7731 46.875 17.1875V32.8125C46.875 33.2269 46.7104 33.6243 46.4174 33.9174C46.1243 34.2104 45.7269 34.375 45.3125 34.375H40.625" stroke="black" stroke-width="4" stroke-linecap="round" stroke-linejoin="round"/>
<path d="M9.375 34.375H4.6875C4.2731 34.375 3.87567 34.2104 3.58265 33.9174C3.28962 33.6243 3.125 33.2269 3.125 32.8125V17.1875C3.125 16.7731 3.28962 16.3757 3.58265 16.0826C3.87567 15.7896 4.2731 15.625 4.6875 15.625H9.375" stroke="black" stroke-width="4" stroke-linecap="round" stroke-linejoin="round"/>
<path d="M17.9688 25H32.0312" stroke="black" stroke-width="4" stroke-linecap="round" stroke-linejoin="round"/>
</svg>
